<svg version="1.2" xmlns="http://www.w3.org/2000/svg" viewBox="0 0 66 66" width="66" height="66"><style>.a{fill:#d4fb51}</style><path class="a" d="m60.9 65.8h-11.1c-1.5 0-2.9-0.6-3.9-1.7l-12.4-14.2-12.4 14.2c-1 1.1-2.4 1.7-3.9 1.7h-10.9c-2 0-3.8-1.1-4.7-3-0.8-1.8-0.6-3.9 0.7-5.4l17.9-21.4c0.8-1 2.2-1.1 3.2-0.3 0.9 0.8 1.1 2.2 0.3 3.2l-17.9 21.3c-0.2 0.3-0.2 0.6-0.1 0.7 0.1 0.2 0.2 0.4 0.6 0.4h10.9q0.3 0 0.5-0.2l14.1-16c0.5-0.5 1.1-0.8 1.7-0.8 0.7 0 1.3 0.3 1.7 0.8l14.1 16q0.2 0.2 0.5 0.2h11.1c0.4 0 0.5-0.2 0.6-0.4 0.1-0.1 0.2-0.4 0-0.6l-14.8-18.6c-3.2-4.1-8-6.4-13.2-6.4-6.5 0-12.6-2.9-16.7-8l-14.7-18.6c-1.3-1.6-1.5-3.6-0.6-5.4 0.8-1.8 2.6-2.9 4.6-2.9h11.1c1.5 0 2.9 0.6 3.9 1.7l12.4 14.1 12.4-14.1c1-1.1 2.4-1.7 3.9-1.7h11c2 0 3.8 1.1 4.6 2.9 0.9 1.8 0.6 3.9-0.7 5.5l-17.7 21.4c-0.8 1-2.2 1.1-3.1 0.3-1-0.7-1.1-2.2-0.3-3.1l17.7-21.5c0.2-0.2 0.1-0.5 0.1-0.7-0.1-0.1-0.3-0.3-0.6-0.3h-11q-0.3 0-0.5 0.2l-14.1 16c-0.4 0.5-1 0.8-1.7 0.8-0.6 0-1.2-0.3-1.7-0.8l-14.1-16q-0.2-0.2-0.5-0.2h-11.1c-0.3 0-0.5 0.2-0.6 0.3-0.1 0.2-0.1 0.4 0.1 0.7l14.7 18.6c3.2 4 8.1 6.3 13.2 6.3 6.6 0 12.7 3 16.7 8.1l14.8 18.6c1.2 1.5 1.4 3.6 0.6 5.4-0.9 1.8-2.7 2.9-4.7 2.9z"/></svg>